<svg xmlns="http://www.w3.org/2000/svg" width="24" height="28" fill="none" viewBox="0 0 24 28"><path fill="currentColor" d="M.016 13.622c0-2.003.015-4.006-.01-6.01a1.26 1.26 0 0 1 .688-1.248Q6.024 3.302 11.333.203a1.21 1.21 0 0 1 1.362.016q5.28 3.085 10.58 6.132a1.27 1.27 0 0 1 .717 1.232 1306 1306 0 0 0 0 12.168 1.26 1.26 0 0 1-.719 1.228q-5.3 3.049-10.578 6.133a1.255 1.255 0 0 1-1.422-.018Q6.023 24.025.756 20.997a1.3 1.3 0 0 1-.746-1.283c.027-2.035.006-4.06.006-6.092m2.462-6.418c.2.14.284.21.38.265 2.912 1.678 5.822 3.366 8.754 5.008a1.09 1.09 0 0 0 .894-.063c2.813-1.584 5.61-3.2 8.409-4.811.18-.104.349-.232.56-.376a3 3 0 0 0-.266-.21c-2.947-1.713-5.89-3.43-8.848-5.115a1.01 1.01 0 0 0-.834.062C9.93 2.852 8.355 3.78 6.779 4.696c-1.404.818-2.803 1.636-4.305 2.508zm19.06 12.9c-.3-.19-.501-.323-.7-.442a4343 4343 0 0 0-5.74-3.29c-.64-.366-.835-.835-.547-1.287.268-.431.725-.468 1.35-.109l4.929 2.826c.476.273.958.535 1.502.835V8.711q-.18.066-.354.15c-2.92 1.67-5.843 3.339-8.744 5.037a1.08 1.08 0 0 0-.399.804c-.027 3.254-.018 6.51-.015 9.763 0 .185.035.37.065.658zM1.672 8.664v9.958c.262-.133.46-.225.648-.334a4940 4940 0 0 0 5.796-3.325c.614-.353 1.09-.297 1.335.147.246.444.072.898-.529 1.243l-5.74 3.292c-.22.126-.426.269-.732.464l8.68 5.03c.02-.334.04-.554.04-.766 0-3.187-.01-6.375.014-9.562a1.04 1.04 0 0 0-.61-1.05c-2.158-1.21-4.294-2.454-6.44-3.684-.786-.463-1.592-.92-2.457-1.413z"/></svg>