<svg xmlns="http://www.w3.org/2000/svg" width="27" height="27" fill="none" viewBox="0 0 27 27"><path stroke="currentColor" stroke-linejoin="round" stroke-width="1.5" d="M22.781 5.906v-.843A2.54 2.54 0 0 0 20.25 2.53H3.375A2.54 2.54 0 0 0 .844 5.063v13.5a2.54 2.54 0 0 0 2.531 2.53h.844"/><path stroke="currentColor" stroke-linejoin="round" stroke-width="1.5" d="M23.731 6.75H7.488a2.425 2.425 0 0 0-2.426 2.425v12.869a2.425 2.425 0 0 0 2.426 2.425H23.73a2.425 2.425 0 0 0 2.425-2.425V9.175a2.425 2.425 0 0 0-2.425-2.425Z"/><path stroke="currentColor" stroke-miterlimit="10" stroke-width="1.5" d="M19.665 13.194c.896 0 1.623-.722 1.623-1.611 0-.89-.727-1.611-1.623-1.611s-1.622.72-1.622 1.61.726 1.612 1.622 1.612Z"/><path stroke="currentColor" stroke-linecap="round" stroke-linejoin="round" stroke-width="1.5" d="m18.043 19.626-4.596-4.556a1.63 1.63 0 0 0-2.224-.063l-6.16 5.435m8.924 4.027 6.254-6.209a1.635 1.635 0 0 1 2.186-.098l3.73 3.085"/></svg>